<?xml version="1.0" encoding="utf-8"?><svg viewBox="0 0 30 30" xmlns="http://www.w3.org/2000/svg" xmlns:xlink="http://www.w3.org/1999/xlink"><style>:root>svg{display:none}:root>svg:target{display:block}</style><svg fill="none" viewBox="0 0 30 30" id="close" xmlns="http://www.w3.org/2000/svg"><path d="M8 8l14 14M8 22L22 8" stroke="#000" stroke-width="2"/></svg><svg fill="none" viewBox="0 0 24 24" id="logo" xmlns="http://www.w3.org/2000/svg"><path d="M19.82 2H4.18A2.18 2.18 0 002 4.18v15.64A2.18 2.18 0 004.18 22h15.64A2.18 2.18 0 0022 19.82V4.18A2.18 2.18 0 0019.82 2zM7 2v20M17 2v20M2 12h20M2 7h5M2 17h5m10 0h5M17 7h5" stroke="#818181" stroke-width="2" stroke-linecap="round" stroke-linejoin="round"/></svg><svg aria-hidden="true" style="position:absolute;width:0;height:0" overflow="hidden" viewBox="0 0 0 0" id="sprite" xmlns="http://www.w3.org/2000/svg"><defs><symbol id="cicon-close" viewBox="0 0 32 32"><path stroke-width="2.133" d="M8.533 8.533l14.933 14.933m-14.933.001L23.466 8.534"/></symbol><symbol id="cicon-logo" viewBox="0 0 32 32"><path fill="none" stroke-linejoin="round" stroke-linecap="round" stroke-width="2.667" d="M26.427 2.667H5.574a2.907 2.907 0 00-2.907 2.907v20.853a2.907 2.907 0 002.907 2.907h20.853a2.907 2.907 0 002.907-2.907V5.574a2.907 2.907 0 00-2.907-2.907zm-17.094 0v26.667M22.667 2.667v26.667M2.667 16h26.667M2.667 9.333h6.667M2.667 22.667h6.667m13.333 0h6.667M22.667 9.333h6.667"/></symbol></defs></svg><svg aria-hidden="true" style="position:absolute;width:0;height:0" overflow="hidden" viewBox="0 0 0 0" id="symbol-defs" xmlns="http://www.w3.org/2000/svg"><defs><symbol id="dicon-close" viewBox="0 0 32 32"><path stroke-width="2.133" d="M8.533 8.533l14.933 14.933m-14.933.001L23.466 8.534"/></symbol><symbol id="dicon-logo" viewBox="0 0 32 32"><path fill="none" stroke="var(--color1, #818181)" stroke-linejoin="round" stroke-linecap="round" stroke-width="2.667" d="M26.427 2.667H5.574a2.907 2.907 0 00-2.907 2.907v20.853a2.907 2.907 0 002.907 2.907v0h20.853a2.907 2.907 0 002.907-2.907v0V5.574a2.907 2.907 0 00-2.907-2.907v0zm-17.094 0v26.667M22.667 2.667v26.667M2.667 16h26.667M2.667 9.333h6.667M2.667 22.667h6.667m13.333 0h6.667M22.667 9.333h6.667"/></symbol></defs></svg></svg>